# xmcd CD database file
# Copyright (C) 1993-1998 Ti Kan
# 
# Track frame offsets:
#     150
#     27775
#     44000
#     60650
#     73975
#     97950
#     111975
#     130812
#     145725
#     158625
#     191475
#     210050
#     233525
#     263200
#     291550
# 
# Disc length: 4299 seconds
# 
# Revision: 1
# Processed by: cddbd v1.4b41PL1 Copyright (c) Steve Scherf et al.
# Submitted via: DiscPlay 4.0.4
# 
DISCID=d710c90f
DTITLE=The O'Jays - The Very Best Of
DYEAR=1900
DGENRE=
TTITLE0=992 Arguments
TTITLE1=Shiftless, Shady, Jealous Kind Of People
TTITLE2=Sunshine
TTITLE3=Love Train
TTITLE4=When The World's At Peace
TTITLE5=Back Stabbers
TTITLE6=Give The People What They Want
TTITLE7=(They Call Me) Mr. Lucky
TTITLE8=Time To Get Down
TTITLE9=For The Love Of Money
TTITLE10=Put Your Hands Together
TTITLE11=Who Am I
TTITLE12=Livin' For The Weekend
TTITLE13=Stairway To Heaven
TTITLE14=I Love Music
EXTD=
EXTT0=
EXTT1=
EXTT2=
EXTT3=
EXTT4=
EXTT5=
EXTT6=
EXTT7=
EXTT8=
EXTT9=
EXTT10=
EXTT11=
EXTT12=
EXTT13=
EXTT14=
PLAYORDER=
